# Blender v3.6.8 OBJ File: ''
# www.blender.org
mtllib arch2.mtl
o Cube.001_Cube.007
v 0.500000 0.500000 -0.000000
v 0.500000 -0.500000 0.500000
v 0.500000 0.500000 0.500000
v 0.500000 0.418762 -0.000000
v 0.500000 -0.248925 0.396275
v 0.500000 0.102124 0.343248
v 0.500000 0.384585 0.167432
v -0.500000 0.500000 0.000000
v -0.500000 -0.500000 0.500000
v -0.500000 0.500000 0.500000
v -0.500000 0.418762 0.000000
v -0.500000 -0.248925 0.396275
v -0.500000 0.102124 0.343248
v -0.500000 0.384585 0.167432
v -0.500000 -0.500000 0.406076
v 0.500000 -0.500000 0.406076
v -0.500000 0.500000 0.000000
v -0.500000 -0.500000 -0.500000
v -0.500000 0.500000 -0.500000
v -0.500000 0.418762 0.000000
v -0.500000 -0.248925 -0.396275
v -0.500000 0.102124 -0.343248
v -0.500000 0.384585 -0.167432
v 0.500000 0.500000 -0.000000
v 0.500000 -0.500000 -0.500000
v 0.500000 0.500000 -0.500000
v 0.500000 0.418762 -0.000000
v 0.500000 -0.248925 -0.396275
v 0.500000 0.102124 -0.343248
v 0.500000 0.384585 -0.167432
v 0.500000 -0.500000 -0.406076
v -0.500000 -0.500000 -0.406076
vt 0.375000 0.250000
vt 0.625000 0.250000
vt 0.625000 0.000000
vt 0.604690 0.000000
vt 0.596146 0.082048
vt 0.525531 0.165182
vt 0.437769 0.224689
vt 0.375000 0.250000
vt 0.437769 0.224689
vt 0.525531 0.165182
vt 0.596146 0.082048
vt 0.604690 0.000000
vt 0.625000 0.000000
vt 0.625000 0.250000
vt 0.375000 0.250000
vt 0.375000 0.250000
vt 0.437769 0.224689
vt 0.437769 0.224689
vt 0.000000 0.000000
vt 0.000000 0.000000
vt 0.000000 0.000000
vt 0.000000 0.000000
vt 0.000000 0.000000
vt 0.000000 0.000000
vt 0.375000 0.250000
vt 0.625000 0.250000
vt 0.625000 0.000000
vt 0.604690 0.000000
vt 0.596146 0.082048
vt 0.525531 0.165182
vt 0.437769 0.224689
vt 0.375000 0.250000
vt 0.437769 0.224689
vt 0.525531 0.165182
vt 0.596146 0.082048
vt 0.604690 0.000000
vt 0.625000 0.000000
vt 0.625000 0.250000
vt 0.375000 0.250000
vt 0.375000 0.250000
vt 0.437769 0.224689
vt 0.437769 0.224689
vt 0.000000 0.000000
vt 0.000000 0.000000
vt 0.000000 0.000000
vt 0.000000 0.000000
vt 0.000000 0.000000
vt 0.000000 0.000000
vn -1.0000 -0.0000 0.0000
vn 1.0000 0.0000 -0.0000
vn 0.0000 0.5284 0.8490
vn 0.0000 0.3818 0.9242
vn 0.0000 -1.0000 -0.0000
vn 0.0000 0.9798 0.2000
vn 0.0000 0.1494 0.9888
vn -0.0000 0.0000 -1.0000
vn 0.0000 0.0000 1.0000
vn 0.0000 1.0000 -0.0000
vn -0.0000 -0.0390 -0.9992
vn -0.0000 0.5284 -0.8490
vn 0.0000 0.3818 -0.9242
vn -0.0000 0.9798 -0.2000
vn -0.0000 0.1494 -0.9888
vn 0.0000 -0.0390 0.9992
usemtl None
s off
f 2/1/1 3/2/1 1/3/1 4/4/1 7/5/1 6/6/1 5/7/1
f 9/8/2 12/9/2 13/10/2 14/11/2 11/12/2 8/13/2 10/14/2
f 6/6/3 7/5/3 14/11/3 13/10/3
f 2/1/4 5/7/4 12/9/4 9/8/4
f 1/3/5 3/2/5 10/14/5 8/13/5
f 7/5/6 4/4/6 11/12/6 14/11/6
f 5/7/7 6/6/7 13/10/7 12/9/7
f 3/2/8 2/1/8 9/8/8 10/14/8
f 4/4/9 1/3/9 8/13/9 11/12/9
f 9/8/10 2/1/10 16/15/10 15/16/10
f 12/9/11 5/7/11 16/17/11 15/18/11
f 15/19/1 9/20/1 12/21/1
f 2/22/2 16/23/2 5/24/2
f 18/25/2 19/26/2 17/27/2 20/28/2 23/29/2 22/30/2 21/31/2
f 25/32/1 28/33/1 29/34/1 30/35/1 27/36/1 24/37/1 26/38/1
f 22/30/12 23/29/12 30/35/12 29/34/12
f 18/25/13 21/31/13 28/33/13 25/32/13
f 17/27/5 19/26/5 26/38/5 24/37/5
f 23/29/14 20/28/14 27/36/14 30/35/14
f 21/31/15 22/30/15 29/34/15 28/33/15
f 19/26/9 18/25/9 25/32/9 26/38/9
f 20/28/8 17/27/8 24/37/8 27/36/8
f 25/32/10 18/25/10 32/39/10 31/40/10
f 28/33/16 21/31/16 32/41/16 31/42/16
f 31/43/2 25/44/2 28/45/2
f 18/46/1 32/47/1 21/48/1
