# Blender 3.6.8
# www.blender.org
mtllib arch.mtl
o Cube.001
v 0.500000 0.500000 -0.000000
v 0.500000 -0.500000 0.500000
v 0.500000 0.500000 0.500000
v 0.500000 0.418762 -0.000000
v 0.500000 -0.248925 0.396275
v 0.500000 0.102124 0.343248
v 0.500000 0.384585 0.167432
v 0.500000 -0.500000 0.406076
v -0.500000 0.500000 -0.000000
v -0.500000 -0.500000 0.500000
v -0.500000 0.500000 0.500000
v -0.500000 0.418762 -0.000000
v -0.500000 -0.248925 0.396275
v -0.500000 0.102124 0.343248
v -0.500000 0.384585 0.167432
v -0.500000 -0.500000 0.406076
v 0.500000 -0.500000 -0.500000
v 0.500000 0.500000 -0.500000
v 0.500000 -0.248925 -0.396275
v 0.500000 0.102124 -0.343248
v 0.500000 0.384585 -0.167432
v 0.500000 -0.500000 -0.406076
v -0.500000 -0.500000 -0.500000
v -0.500000 0.500000 -0.500000
v -0.500000 -0.248925 -0.396275
v -0.500000 0.102124 -0.343248
v -0.500000 0.384585 -0.167432
v -0.500000 -0.500000 -0.406076
vn 1.0000 -0.0000 -0.0000
vn -1.0000 -0.0000 -0.0000
vn -0.0000 -0.5284 -0.8490
vn -0.0000 1.0000 -0.0000
vn -0.0000 -0.1494 -0.9888
vn -0.0000 -0.0390 -0.9992
vn -0.0000 -1.0000 -0.0000
vn -0.0000 -0.9798 -0.2000
vn -0.0000 -0.0000 1.0000
vn -0.0000 -0.5284 0.8490
vn -0.0000 -0.1494 0.9888
vn -0.0000 -0.0390 0.9992
vn -0.0000 -0.9798 0.2000
vn -0.0000 -0.0000 -1.0000
vt 0.375000 0.250000
vt 0.437769 0.224689
vt 0.625000 0.250000
vt 0.000000 0.000000
vt 0.525531 0.165182
vt 0.596146 0.082048
vt 0.625000 0.000000
vt 0.604690 0.000000
s 0
f 2/1/1 5/2/1 3/3/1
f 2/4/1 8/4/1 5/4/1
f 3/3/1 5/2/1 6/5/1
f 6/5/1 7/6/1 3/3/1
f 3/3/1 7/6/1 1/7/1
f 7/6/1 4/8/1 1/7/1
f 10/1/2 11/3/2 13/2/2
f 10/4/2 13/4/2 16/4/2
f 11/3/2 14/5/2 13/2/2
f 14/5/2 11/3/2 15/6/2
f 11/3/2 9/7/2 15/6/2
f 15/6/2 9/7/2 12/8/2
f 6/5/3 14/5/3 15/6/3 7/6/3
f 1/7/4 9/7/4 11/3/4 3/3/4
f 5/2/5 13/2/5 14/5/5 6/5/5
f 8/4/6 16/4/6 13/4/6 5/4/6
f 2/4/7 10/4/7 16/4/7 8/4/7
f 7/6/8 15/6/8 12/8/8 4/8/8
f 3/3/9 11/3/9 10/1/9 2/1/9
f 17/1/1 18/3/1 19/2/1
f 17/4/1 19/4/1 22/4/1
f 18/3/1 20/5/1 19/2/1
f 20/5/1 18/3/1 21/6/1
f 18/3/1 1/7/1 21/6/1
f 21/6/1 1/7/1 4/8/1
f 23/1/2 25/2/2 24/3/2
f 23/4/2 28/4/2 25/4/2
f 24/3/2 25/2/2 26/5/2
f 26/5/2 27/6/2 24/3/2
f 24/3/2 27/6/2 9/7/2
f 27/6/2 12/8/2 9/7/2
f 20/5/10 21/6/10 27/6/10 26/5/10
f 1/7/4 18/3/4 24/3/4 9/7/4
f 19/2/11 20/5/11 26/5/11 25/2/11
f 22/4/12 19/4/12 25/4/12 28/4/12
f 17/4/7 22/4/7 28/4/7 23/4/7
f 21/6/13 4/8/13 12/8/13 27/6/13
f 18/3/14 17/1/14 23/1/14 24/3/14
