# Blender v3.6.8 OBJ File: ''
# www.blender.org
mtllib flag.mtl
o Cylinder_Cylinder.002
v 0.500000 -0.500000 -0.000000
v 0.500000 -0.200000 -0.000000
v 0.433013 -0.200000 0.250000
v 0.433013 -0.500000 0.250000
v 0.250000 -0.200000 0.433013
v 0.250000 -0.500000 0.433013
v 0.000000 -0.200000 0.500000
v 0.000000 -0.500000 0.500000
v -0.250000 -0.200000 0.433013
v -0.250000 -0.500000 0.433013
v -0.433013 -0.200000 0.250000
v -0.433013 -0.500000 0.250000
v -0.500000 -0.200000 -0.000000
v -0.500000 -0.500000 -0.000000
v -0.433013 -0.200000 -0.250000
v -0.433013 -0.500000 -0.250000
v -0.250000 -0.200000 -0.433013
v -0.250000 -0.500000 -0.433013
v 0.000000 -0.200000 -0.500000
v 0.000000 -0.500000 -0.500000
v 0.250000 -0.200000 -0.433013
v 0.250000 -0.500000 -0.433013
v -0.375000 -0.200000 -0.000000
v -0.324760 -0.200000 -0.187500
v 0.433013 -0.200000 -0.250000
v 0.433013 -0.500000 -0.250000
v 0.187500 -0.200000 0.324760
v 0.324760 -0.200000 0.187500
v 0.324760 0.500000 0.187500
v 0.187500 0.500000 0.324760
v -0.324760 -0.200000 0.187500
v -0.187500 -0.200000 0.324760
v 0.000000 -0.200000 0.375000
v 0.324759 -0.200000 -0.187500
v 0.375000 -0.200000 -0.000000
v 0.187500 -0.200000 -0.324760
v 0.000000 -0.200000 -0.375000
v -0.187500 -0.200000 -0.324759
v 0.375000 0.500000 0.000000
v 0.324759 0.500000 -0.187500
v 0.187500 0.500000 -0.324760
v 0.000000 0.500000 -0.375000
v -0.187500 0.500000 -0.324759
v -0.324760 0.500000 -0.187500
v -0.375000 0.500000 0.000000
v -0.324760 0.500000 0.187500
v -0.187500 0.500000 0.324760
v 0.000000 0.500000 0.375000
v 0.639657 0.500000 -0.074339
v 0.639657 0.500000 -0.268453
v 0.897728 -0.200000 -0.257603
v 0.897728 0.500000 -0.257603
v 1.155799 0.500000 -0.149627
v 1.155799 0.150000 -0.149627
v 1.155799 -0.200000 -0.149627
v 0.639657 -0.200000 -0.268453
v 0.639657 -0.200000 -0.074339
v 1.484163 0.456250 -0.000016
v 1.484163 0.193750 -0.000016
v 1.812527 0.237500 -0.155512
v 1.812527 0.412500 -0.155512
v 0.897728 -0.200000 -0.063488
v 1.155799 -0.200000 0.044488
v 0.897728 0.500000 -0.063488
v 1.155799 0.150000 0.044488
v 1.155799 0.500000 0.044488
v 1.484163 -0.156250 -0.194130
v 1.484163 0.106250 -0.194130
v 1.812527 0.062500 -0.349627
v 1.812527 -0.112500 -0.349627
v 2.150334 0.018750 -0.329737
v 2.150334 0.018750 -0.135623
v 2.488141 -0.025000 0.044488
v 2.488141 -0.025000 -0.149627
v 1.484163 0.456250 -0.194130
v 1.812527 0.412500 -0.349627
v 1.484163 0.193750 -0.194130
v 1.812527 0.237500 -0.349627
v 2.150334 0.281250 -0.329737
v 2.150334 0.368750 -0.329737
v 2.488141 0.325000 -0.149627
v 1.484163 -0.156250 -0.000016
v 1.812527 -0.112500 -0.155512
v 1.484163 0.106250 -0.000016
v 1.812527 0.062500 -0.155512
v 2.150334 0.368750 -0.135623
v 2.488141 0.325000 0.044488
v 2.150334 -0.068750 -0.329737
v 2.150334 0.281250 -0.135623
v 2.150334 -0.068750 -0.135623
vt 1.000000 0.500000
vt 1.000000 1.000000
vt 0.916667 1.000000
vt 0.916667 0.500000
vt 0.833333 1.000000
vt 0.833333 0.500000
vt 0.750000 1.000000
vt 0.750000 0.500000
vt 0.666667 1.000000
vt 0.666667 0.500000
vt 0.583333 1.000000
vt 0.583333 0.500000
vt 0.500000 1.000000
vt 0.500000 0.500000
vt 0.416667 1.000000
vt 0.416667 0.500000
vt 0.333333 1.000000
vt 0.333333 0.500000
vt 0.250000 1.000000
vt 0.250000 0.500000
vt 0.166667 1.000000
vt 0.166667 0.500000
vt 0.500000 1.000000
vt 0.416667 1.000000
vt 0.083333 1.000000
vt 0.083333 0.500000
vt 0.000000 1.000000
vt 0.000000 0.500000
vt 0.750000 0.490000
vt 0.870000 0.457846
vt 0.957846 0.370000
vt 0.990000 0.250000
vt 0.957846 0.130000
vt 0.870000 0.042154
vt 0.750000 0.010000
vt 0.630000 0.042154
vt 0.542154 0.130000
vt 0.510000 0.250000
vt 0.542154 0.370000
vt 0.630000 0.457846
vt 0.833333 1.000000
vt 0.916667 1.000000
vt 0.916667 1.000000
vt 0.833333 1.000000
vt 0.583333 1.000000
vt 0.666667 1.000000
vt 0.750000 1.000000
vt 0.083333 1.000000
vt 0.000000 1.000000
vt 1.000000 1.000000
vt 0.166667 1.000000
vt 0.250000 1.000000
vt 0.333333 1.000000
vt 0.370000 0.457846
vt 0.250000 0.490000
vt 0.130000 0.457846
vt 0.042154 0.370000
vt 0.010000 0.250000
vt 0.042154 0.130000
vt 0.130000 0.042154
vt 0.250000 0.010000
vt 0.370000 0.042154
vt 0.457846 0.130000
vt 0.490000 0.250000
vt 0.457846 0.370000
vt 0.333333 1.000000
vt 0.250000 1.000000
vt 0.583333 1.000000
vt 0.500000 1.000000
vt 0.750000 1.000000
vt 0.166667 1.000000
vt 0.416667 1.000000
vt 0.666667 1.000000
vt 0.083333 1.000000
vt 1.000000 1.000000
vt 0.250000 0.490000
vt 0.130000 0.457846
vt 0.083333 1.000000
vt 0.083333 1.000000
vt 0.083333 1.000000
vt 0.083333 1.000000
vt 0.083333 1.000000
vt 0.083333 1.000000
vt 0.083333 1.000000
vt 0.000000 1.000000
vt 1.000000 1.000000
vt 1.000000 1.000000
vt 1.000000 1.000000
vt 1.000000 1.000000
vt 1.000000 1.000000
vt 1.000000 1.000000
vt 0.000000 1.000000
vt 0.000000 1.000000
vt 1.000000 1.000000
vt 1.000000 1.000000
vt 1.000000 1.000000
vt 1.000000 1.000000
vt 1.000000 1.000000
vt 0.130000 0.457846
vt 0.250000 0.490000
vt 0.250000 0.490000
vt 0.130000 0.457846
vt 0.083333 1.000000
vt 0.083333 1.000000
vt 0.083333 1.000000
vt 0.083333 1.000000
vt 0.083333 1.000000
vt 0.000000 1.000000
vt 0.000000 1.000000
vt 0.083333 1.000000
vt 0.130000 0.457846
vt 0.250000 0.490000
vt 0.250000 0.490000
vt 0.130000 0.457846
vt 0.000000 1.000000
vt 0.083333 1.000000
vt 0.083333 1.000000
vt 0.000000 1.000000
vt 0.083333 1.000000
vt 0.083333 1.000000
vt 0.083333 1.000000
vt 0.083333 1.000000
vt 0.083333 1.000000
vt 0.000000 1.000000
vt 0.000000 1.000000
vt 1.000000 1.000000
vt 1.000000 1.000000
vt 1.000000 1.000000
vt 1.000000 1.000000
vt 0.000000 1.000000
vt 0.000000 1.000000
vt 0.130000 0.457846
vt 0.250000 0.490000
vt 0.250000 0.490000
vt 0.130000 0.457846
vt 0.083333 1.000000
vt 0.000000 1.000000
vt 0.000000 1.000000
vt 1.000000 1.000000
vt 1.000000 1.000000
vt 1.000000 1.000000
vt 1.000000 1.000000
vt 1.000000 1.000000
vt 1.000000 1.000000
vt 0.000000 1.000000
vt 0.000000 1.000000
vn 0.7572 -0.6532 -0.0000
vn 0.7572 0.6532 0.0000
vn 0.6557 0.6532 0.3786
vn 0.6557 -0.6532 0.3786
vn 0.3786 0.6532 0.6557
vn 0.3786 -0.6532 0.6557
vn 0.0000 0.6532 0.7572
vn 0.0000 -0.6532 0.7572
vn -0.3786 0.6532 0.6557
vn -0.3786 -0.6532 0.6557
vn -0.6557 0.6532 0.3786
vn -0.6557 -0.6532 0.3786
vn -0.7572 0.6532 0.0000
vn -0.7572 -0.6532 -0.0000
vn -0.6557 0.6532 -0.3786
vn -0.6557 -0.6532 -0.3786
vn -0.3786 0.6532 -0.6557
vn -0.3786 -0.6532 -0.6557
vn 0.0000 0.6532 -0.7572
vn 0.0000 -0.6532 -0.7572
vn 0.3786 0.6532 -0.6557
vn 0.3786 -0.6532 -0.6557
vn -0.6377 0.7703 0.0000
vn -0.5523 0.7703 -0.3189
vn 0.6557 0.6532 -0.3786
vn 0.6557 -0.6532 -0.3786
vn 0.3189 0.7703 0.5523
vn 0.5523 0.7703 0.3189
vn -0.5523 0.7703 0.3189
vn -0.3189 0.7703 0.5523
vn 0.0000 0.7703 0.6377
vn 0.2088 0.6107 -0.7638
vn 0.5632 0.6109 0.5565
vn 0.3189 0.7703 -0.5523
vn -0.0000 0.7703 -0.6377
vn -0.3189 0.7703 -0.5523
vn 0.3892 0.8370 0.3845
vn 0.1442 0.8373 -0.5274
vn 0.0772 0.7443 0.6634
vn -0.0771 0.6756 -0.7332
vn 0.1615 -0.6695 -0.7250
vn 0.1615 0.6695 -0.7250
vn 0.1359 0.7788 -0.6124
vn 0.2166 0.0000 -0.9763
vn 0.1359 -0.7788 -0.6124
vn -0.0771 -0.6756 -0.7332
vn 0.0772 -0.7443 0.6634
vn 0.2855 0.6556 0.6991
vn 0.2855 -0.6556 0.6991
vn 0.2319 -0.7512 0.6180
vn 0.2319 0.7512 0.6180
vn -0.1440 -0.7490 0.6467
vn -0.0575 -0.6695 0.7406
vn -0.1440 0.7490 0.6467
vn -0.0774 -0.0000 0.9970
vn -0.0575 0.6694 0.7406
vn -0.0864 -0.7489 -0.6571
vn -0.0864 0.7489 -0.6571
vn -0.0743 0.6603 -0.7473
vn -0.0743 -0.6603 -0.7473
vn 0.2717 0.6448 -0.7145
vn -0.0704 0.7629 0.6427
vn 0.6494 0.0000 0.7605
vn 0.9535 0.0000 -0.3013
vn 0.2717 -0.6448 -0.7145
vn -0.0704 -0.7629 0.6427
usemtl None.002
s 1
f 1/1/1 2/2/2 3/3/3 4/4/4
f 4/4/4 3/3/3 5/5/5 6/6/6
f 6/6/6 5/5/5 7/7/7 8/8/8
f 8/8/8 7/7/7 9/9/9 10/10/10
f 10/10/10 9/9/9 11/11/11 12/12/12
f 12/12/12 11/11/11 13/13/13 14/14/14
f 14/14/14 13/13/13 15/15/15 16/16/16
f 16/16/16 15/15/15 17/17/17 18/18/18
f 18/18/18 17/17/17 19/19/19 20/20/20
f 20/20/20 19/19/19 21/21/21 22/22/22
f 15/15/15 13/13/13 23/23/23 24/24/24
f 22/22/22 21/21/21 25/25/25 26/26/26
f 26/26/26 25/25/25 2/27/2 1/28/1
f 1/29/1 4/30/4 6/31/6 8/32/8 10/33/10 12/34/12 14/35/14 16/36/16 18/37/18 20/38/20 22/39/22 26/40/26
f 27/41/27 28/42/28 29/43/3 30/44/5
f 13/13/13 11/11/11 31/45/29 23/23/23
f 11/11/11 9/9/9 32/46/30 31/45/29
f 9/9/9 7/7/7 33/47/31 32/46/30
f 2/27/2 25/25/25 34/48/32 35/49/33
f 3/3/3 2/2/2 35/50/33 28/42/28
f 7/7/7 5/5/5 27/41/27 33/47/31
f 25/25/25 21/21/21 36/51/34 34/48/32
f 5/5/5 3/3/3 28/42/28 27/41/27
f 21/21/21 19/19/19 37/52/35 36/51/34
f 19/19/19 17/17/17 38/53/36 37/52/35
f 17/17/17 15/15/15 24/24/24 38/53/36
f 29/54/3 39/55/37 40/56/38 41/57/21 42/58/19 43/59/17 44/60/15 45/61/13 46/62/11 47/63/9 48/64/7 30/65/5
f 37/52/35 38/53/36 43/66/17 42/67/19
f 23/23/23 31/45/29 46/68/11 45/69/13
f 33/47/31 27/41/27 30/44/5 48/70/7
f 36/51/34 37/52/35 42/67/19 41/71/21
f 24/24/24 23/23/23 45/69/13 44/72/15
f 32/46/30 33/47/31 48/70/7 47/73/9
f 34/48/32 36/51/34 41/71/21 40/74/38
f 28/42/28 35/50/33 39/75/37 29/43/3
f 38/53/36 24/24/24 44/72/15 43/66/17
f 31/45/29 32/46/30 47/73/9 46/68/11
f 40/56/38 39/55/37 49/76/39 50/77/40
f 51/78/41 52/79/42 53/80/43 54/81/44 55/82/45
f 34/48/32 40/74/38 50/83/40 56/84/46
f 35/49/33 34/48/32 56/84/46 57/85/47
f 39/75/37 35/50/33 57/86/47 49/87/39
f 58/88/48 59/89/49 60/90/50 61/91/51
f 62/92/52 51/78/41 55/82/45 63/93/53
f 64/94/54 62/95/52 63/96/53 65/97/55 66/98/56
f 52/99/42 64/100/54 66/101/56 53/102/43
f 67/103/57 68/104/58 69/105/59 70/106/60
f 71/107/61 72/108/62 73/109/63 74/110/64
f 75/111/58 58/112/48 61/113/51 76/114/59
f 59/115/49 77/116/57 78/117/60 60/118/50
f 77/116/57 75/119/58 76/120/59 78/117/60
f 79/121/65 80/122/61 81/123/64
f 82/124/49 67/103/57 70/106/60 83/125/50
f 84/126/48 82/127/49 83/128/50 85/129/51
f 68/104/58 84/130/48 85/131/51 69/105/59
f 80/132/61 86/133/62 87/134/63 81/135/64
f 88/136/65 71/107/61 74/110/64
f 89/137/66 79/121/65 81/123/64 87/138/63
f 86/139/62 89/140/66 87/141/63
f 72/142/62 90/143/66 73/144/63
f 90/145/66 88/136/65 74/110/64 73/109/63
f 50/77/40 49/76/39 64/100/54 52/99/42
f 49/87/39 57/86/47 62/95/52 64/94/54
f 57/85/47 56/84/46 51/78/41 62/92/52
f 56/84/46 50/83/40 52/79/42 51/78/41
f 54/81/44 53/80/43 75/119/58 77/116/57
f 65/146/55 54/81/44 77/116/57 59/115/49
f 53/102/43 66/101/56 58/112/48 75/111/58
f 66/98/56 65/97/55 59/89/49 58/88/48
f 54/81/44 65/146/55 84/130/48 68/104/58
f 65/97/55 63/96/53 82/127/49 84/126/48
f 63/93/53 55/82/45 67/103/57 82/124/49
f 55/82/45 54/81/44 68/104/58 67/103/57
f 61/91/51 60/90/50 89/140/66 86/139/62
f 60/118/50 78/117/60 79/121/65 89/137/66
f 76/114/59 61/113/51 86/133/62 80/132/61
f 78/117/60 76/120/59 80/122/61 79/121/65
f 83/125/50 70/106/60 88/136/65 90/145/66
f 85/129/51 83/128/50 90/143/66 72/142/62
f 70/106/60 69/105/59 71/107/61 88/136/65
f 69/105/59 85/131/51 72/108/62 71/107/61
