# Blender v3.6.8 OBJ File: ''
# www.blender.org
mtllib torus.mtl
o Torus
v 5.658572 0.000000 0.000000
v 5.572605 -0.000000 -0.982603
v 5.307245 0.269456 -0.935809
v 5.389117 0.269456 -0.000000
v 5.041880 -0.000000 -0.889021
v 5.119661 0.000000 0.000000
v 5.307245 -0.269456 -0.935809
v 5.389117 -0.269456 0.000000
v 5.317317 -0.000000 -1.935345
v 5.064115 0.269456 -1.843186
v 4.810908 -0.000000 -1.751026
v 5.064115 -0.269456 -1.843186
v 4.900469 -0.000000 -2.829286
v 4.667109 0.269456 -2.694558
v 4.433755 -0.000000 -2.559830
v 4.667109 -0.269456 -2.694558
v 4.334720 -0.000000 -3.637260
v 4.128301 0.269456 -3.464060
v 3.921887 -0.000000 -3.290853
v 4.128301 -0.269456 -3.464060
v 3.637260 -0.000000 -4.334720
v 3.464060 0.269456 -4.128301
v 3.290853 -0.000000 -3.921887
v 3.464060 -0.269456 -4.128301
v 2.829286 -0.000000 -4.900469
v 2.694558 0.269455 -4.667109
v 2.559830 -0.000000 -4.433755
v 2.694558 -0.269456 -4.667109
v 1.935345 -0.000000 -5.317317
v 1.843186 0.269455 -5.064115
v 1.751026 -0.000000 -4.810908
v 1.843186 -0.269456 -5.064115
v 0.982603 -0.000000 -5.572605
v 0.935809 0.269455 -5.307245
v 0.889021 -0.000000 -5.041880
v 0.935809 -0.269456 -5.307245
v 0.000000 -0.000000 -5.658572
v 0.000000 0.269455 -5.389117
v 0.000000 -0.000000 -5.119661
v 0.000000 -0.269456 -5.389117
v -0.982598 -0.000000 -5.572605
v -0.935809 0.269455 -5.307245
v -0.889021 -0.000000 -5.041880
v -0.935809 -0.269456 -5.307245
v -1.935345 -0.000000 -5.317317
v -1.843186 0.269455 -5.064115
v -1.751026 -0.000000 -4.810908
v -1.843186 -0.269456 -5.064115
v -2.829286 -0.000000 -4.900469
v -2.694558 0.269455 -4.667115
v -2.559830 -0.000000 -4.433755
v -2.694558 -0.269456 -4.667115
v -3.637260 -0.000000 -4.334720
v -3.464054 0.269456 -4.128306
v -3.290853 -0.000000 -3.921887
v -3.464054 -0.269456 -4.128306
v -4.334714 -0.000000 -3.637260
v -4.128301 0.269456 -3.464060
v -3.921887 -0.000000 -3.290853
v -4.128301 -0.269456 -3.464060
v -4.900464 -0.000000 -2.829286
v -4.667109 0.269456 -2.694558
v -4.433755 -0.000000 -2.559830
v -4.667109 -0.269456 -2.694558
v -5.317317 -0.000000 -1.935345
v -5.064110 0.269456 -1.843186
v -4.810908 -0.000000 -1.751026
v -5.064110 -0.269456 -1.843186
v -5.572605 -0.000000 -0.982603
v -5.307245 0.269456 -0.935815
v -5.041880 -0.000000 -0.889021
v -5.307245 -0.269456 -0.935815
v -5.658572 0.000000 0.000000
v -5.389117 0.269456 -0.000000
v -5.119661 0.000000 0.000000
v -5.389117 -0.269456 0.000000
v -5.572605 0.000000 0.982598
v -5.307245 0.269456 0.935809
v -5.041880 0.000000 0.889021
v -5.307245 -0.269456 0.935809
v -5.317317 0.000000 1.935345
v -5.064115 0.269456 1.843186
v -4.810908 0.000000 1.751026
v -5.064115 -0.269456 1.843186
v -4.900469 0.000000 2.829286
v -4.667115 0.269456 2.694558
v -4.433755 0.000000 2.559830
v -4.667115 -0.269456 2.694558
v -4.334720 0.000000 3.637260
v -4.128306 0.269456 3.464054
v -3.921887 0.000000 3.290853
v -4.128306 -0.269456 3.464054
v -3.637260 0.000000 4.334720
v -3.464054 0.269456 4.128306
v -3.290853 0.000000 3.921887
v -3.464054 -0.269456 4.128306
v -2.829286 0.000000 4.900469
v -2.694558 0.269456 4.667115
v -2.559830 0.000000 4.433755
v -2.694558 -0.269455 4.667115
v -1.935345 0.000000 5.317317
v -1.843186 0.269456 5.064115
v -1.751026 0.000000 4.810908
v -1.843186 -0.269455 5.064115
v -0.982598 0.000000 5.572605
v -0.935809 0.269456 5.307245
v -0.889021 0.000000 5.041880
v -0.935809 -0.269455 5.307245
v 0.000000 0.000000 5.658572
v 0.000000 0.269456 5.389117
v 0.000000 0.000000 5.119661
v 0.000000 -0.269455 5.389117
v 0.982603 0.000000 5.572605
v 0.935809 0.269456 5.307245
v 0.889021 0.000000 5.041880
v 0.935809 -0.269455 5.307245
v 1.935345 0.000000 5.317317
v 1.843186 0.269456 5.064115
v 1.751026 0.000000 4.810908
v 1.843186 -0.269455 5.064115
v 2.829286 0.000000 4.900469
v 2.694558 0.269456 4.667109
v 2.559830 0.000000 4.433755
v 2.694558 -0.269455 4.667109
v 3.637260 0.000000 4.334720
v 3.464060 0.269456 4.128301
v 3.290853 0.000000 3.921887
v 3.464060 -0.269456 4.128301
v 4.334720 0.000000 3.637260
v 4.128301 0.269456 3.464060
v 3.921887 0.000000 3.290853
v 4.128301 -0.269456 3.464060
v 4.900469 0.000000 2.829286
v 4.667109 0.269456 2.694558
v 4.433755 0.000000 2.559830
v 4.667109 -0.269456 2.694558
v 5.317317 0.000000 1.935345
v 5.064115 0.269456 1.843186
v 4.810908 0.000000 1.751026
v 5.064115 -0.269456 1.843186
v 5.572605 0.000000 0.982603
v 5.307245 0.269456 0.935809
v 5.041880 0.000000 0.889021
v 5.307245 -0.269456 0.935809
vt 0.500000 0.500000
vt 0.527778 0.500000
vt 0.527778 0.750000
vt 0.500000 0.750000
vt 0.527778 1.000000
vt 0.500000 1.000000
vt 0.500000 0.000000
vt 0.527778 0.000000
vt 0.527778 0.250000
vt 0.500000 0.250000
vt 0.555556 0.500000
vt 0.555556 0.750000
vt 0.555556 1.000000
vt 0.555556 0.000000
vt 0.555556 0.250000
vt 0.583333 0.500000
vt 0.583333 0.750000
vt 0.583333 1.000000
vt 0.583333 0.000000
vt 0.583333 0.250000
vt 0.611111 0.500000
vt 0.611111 0.750000
vt 0.611111 1.000000
vt 0.611111 0.000000
vt 0.611111 0.250000
vt 0.638889 0.500000
vt 0.638889 0.750000
vt 0.638889 1.000000
vt 0.638889 0.000000
vt 0.638889 0.250000
vt 0.666667 0.500000
vt 0.666667 0.750000
vt 0.666667 1.000000
vt 0.666667 0.000000
vt 0.666667 0.250000
vt 0.694444 0.500000
vt 0.694444 0.750000
vt 0.694444 1.000000
vt 0.694444 0.000000
vt 0.694444 0.250000
vt 0.722222 0.500000
vt 0.722222 0.750000
vt 0.722222 1.000000
vt 0.722222 0.000000
vt 0.722222 0.250000
vt 0.750000 0.500000
vt 0.750000 0.750000
vt 0.750000 1.000000
vt 0.750000 0.000000
vt 0.750000 0.250000
vt 0.777778 0.500000
vt 0.777778 0.750000
vt 0.777778 1.000000
vt 0.777778 0.000000
vt 0.777778 0.250000
vt 0.805556 0.500000
vt 0.805556 0.750000
vt 0.805556 1.000000
vt 0.805556 0.000000
vt 0.805556 0.250000
vt 0.833333 0.500000
vt 0.833333 0.750000
vt 0.833333 1.000000
vt 0.833333 0.000000
vt 0.833333 0.250000
vt 0.861111 0.500000
vt 0.861111 0.750000
vt 0.861111 1.000000
vt 0.861111 0.000000
vt 0.861111 0.250000
vt 0.888889 0.500000
vt 0.888889 0.750000
vt 0.888889 1.000000
vt 0.888889 0.000000
vt 0.888889 0.250000
vt 0.916667 0.500000
vt 0.916667 0.750000
vt 0.916667 1.000000
vt 0.916667 0.000000
vt 0.916667 0.250000
vt 0.944444 0.500000
vt 0.944444 0.750000
vt 0.944444 1.000000
vt 0.944444 0.000000
vt 0.944444 0.250000
vt 0.972222 0.500000
vt 0.972222 0.750000
vt 0.972222 1.000000
vt 0.972222 0.000000
vt 0.972222 0.250000
vt 1.000000 0.500000
vt 1.000000 0.750000
vt 1.000000 1.000000
vt 1.000000 0.000000
vt 1.000000 0.250000
vt 0.000000 0.500000
vt 0.027778 0.500000
vt 0.027778 0.750000
vt 0.000000 0.750000
vt 0.027778 1.000000
vt 0.000000 1.000000
vt 0.000000 0.000000
vt 0.027778 0.000000
vt 0.027778 0.250000
vt 0.000000 0.250000
vt 0.055556 0.500000
vt 0.055556 0.750000
vt 0.055556 1.000000
vt 0.055556 0.000000
vt 0.055556 0.250000
vt 0.083333 0.500000
vt 0.083333 0.750000
vt 0.083333 1.000000
vt 0.083333 0.000000
vt 0.083333 0.250000
vt 0.111111 0.500000
vt 0.111111 0.750000
vt 0.111111 1.000000
vt 0.111111 0.000000
vt 0.111111 0.250000
vt 0.138889 0.500000
vt 0.138889 0.750000
vt 0.138889 1.000000
vt 0.138889 0.000000
vt 0.138889 0.250000
vt 0.166667 0.500000
vt 0.166667 0.750000
vt 0.166667 1.000000
vt 0.166667 0.000000
vt 0.166667 0.250000
vt 0.194444 0.500000
vt 0.194444 0.750000
vt 0.194444 1.000000
vt 0.194444 0.000000
vt 0.194444 0.250000
vt 0.222222 0.500000
vt 0.222222 0.750000
vt 0.222222 1.000000
vt 0.222222 0.000000
vt 0.222222 0.250000
vt 0.250000 0.500000
vt 0.250000 0.750000
vt 0.250000 1.000000
vt 0.250000 0.000000
vt 0.250000 0.250000
vt 0.277778 0.500000
vt 0.277778 0.750000
vt 0.277778 1.000000
vt 0.277778 0.000000
vt 0.277778 0.250000
vt 0.305556 0.500000
vt 0.305556 0.750000
vt 0.305556 1.000000
vt 0.305556 0.000000
vt 0.305556 0.250000
vt 0.333333 0.500000
vt 0.333333 0.750000
vt 0.333333 1.000000
vt 0.333333 0.000000
vt 0.333333 0.250000
vt 0.361111 0.500000
vt 0.361111 0.750000
vt 0.361111 1.000000
vt 0.361111 0.000000
vt 0.361111 0.250000
vt 0.388889 0.500000
vt 0.388889 0.750000
vt 0.388889 1.000000
vt 0.388889 0.000000
vt 0.388889 0.250000
vt 0.416667 0.500000
vt 0.416667 0.750000
vt 0.416667 1.000000
vt 0.416667 0.000000
vt 0.416667 0.250000
vt 0.444444 0.500000
vt 0.444444 0.750000
vt 0.444444 1.000000
vt 0.444444 0.000000
vt 0.444444 0.250000
vt 0.472222 0.500000
vt 0.472222 0.750000
vt 0.472222 1.000000
vt 0.472222 0.000000
vt 0.472222 0.250000
vn 0.7058 0.7058 -0.0617
vn -0.7058 0.7058 0.0617
vn -0.7058 -0.7058 0.0617
vn 0.7058 -0.7058 -0.0617
vn 0.6843 0.7058 -0.1834
vn -0.6843 0.7058 0.1834
vn -0.6843 -0.7058 0.1834
vn 0.6843 -0.7058 -0.1834
vn 0.6421 0.7058 -0.2994
vn -0.6421 0.7058 0.2994
vn -0.6421 -0.7058 0.2994
vn 0.6421 -0.7058 -0.2994
vn 0.5803 0.7058 -0.4063
vn -0.5803 0.7058 0.4064
vn -0.5803 -0.7058 0.4064
vn 0.5803 -0.7058 -0.4063
vn 0.5010 0.7058 -0.5010
vn -0.5010 0.7058 0.5010
vn -0.5010 -0.7058 0.5010
vn 0.5010 -0.7058 -0.5010
vn 0.4063 0.7058 -0.5803
vn -0.4064 0.7058 0.5803
vn -0.4064 -0.7058 0.5803
vn 0.4064 -0.7058 -0.5803
vn 0.2994 0.7058 -0.6421
vn -0.2994 0.7058 0.6421
vn -0.2994 -0.7058 0.6421
vn 0.2994 -0.7058 -0.6421
vn 0.1834 0.7058 -0.6843
vn -0.1834 0.7058 0.6843
vn -0.1834 -0.7058 0.6843
vn 0.1834 -0.7058 -0.6843
vn 0.0617 0.7058 -0.7058
vn -0.0617 0.7058 0.7058
vn -0.0617 -0.7058 0.7058
vn 0.0617 -0.7058 -0.7058
vn -0.0617 0.7058 -0.7058
vn 0.0617 0.7058 0.7058
vn 0.0617 -0.7058 0.7058
vn -0.0617 -0.7058 -0.7058
vn -0.1834 0.7058 -0.6843
vn 0.1834 0.7058 0.6843
vn 0.1834 -0.7058 0.6843
vn -0.1834 -0.7058 -0.6843
vn -0.2994 0.7058 -0.6421
vn 0.2994 0.7058 0.6421
vn 0.2994 -0.7058 0.6421
vn -0.2994 -0.7058 -0.6421
vn -0.4064 0.7058 -0.5803
vn 0.4064 0.7058 0.5803
vn 0.4064 -0.7058 0.5803
vn -0.4064 -0.7058 -0.5803
vn -0.5010 0.7058 -0.5010
vn 0.5010 0.7058 0.5010
vn 0.5010 -0.7058 0.5010
vn -0.5010 -0.7058 -0.5010
vn -0.5803 0.7058 -0.4064
vn 0.5803 0.7058 0.4064
vn 0.5803 -0.7058 0.4064
vn -0.5803 -0.7058 -0.4064
vn -0.6421 0.7058 -0.2994
vn 0.6421 0.7058 0.2994
vn 0.6421 -0.7058 0.2994
vn -0.6421 -0.7058 -0.2994
vn -0.6843 0.7058 -0.1834
vn 0.6843 0.7058 0.1834
vn 0.6843 -0.7058 0.1834
vn -0.6843 -0.7058 -0.1834
vn -0.7058 0.7058 -0.0617
vn 0.7058 0.7058 0.0617
vn 0.7058 -0.7058 0.0617
vn -0.7058 -0.7058 -0.0617
vn 0.5803 0.7058 -0.4064
vn 0.5803 -0.7058 -0.4064
vn 0.4064 0.7058 -0.5803
vn 0.4063 -0.7058 0.5803
vn 0.5803 0.7058 0.4063
vn 0.5803 -0.7058 0.4063
usemtl None
s 1
f 1/1/1 2/2/1 3/3/1 4/4/1
f 4/4/2 3/3/2 5/5/2 6/6/2
f 6/7/3 5/8/3 7/9/3 8/10/3
f 8/10/4 7/9/4 2/2/4 1/1/4
f 2/2/5 9/11/5 10/12/5 3/3/5
f 3/3/6 10/12/6 11/13/6 5/5/6
f 5/8/7 11/14/7 12/15/7 7/9/7
f 7/9/8 12/15/8 9/11/8 2/2/8
f 9/11/9 13/16/9 14/17/9 10/12/9
f 10/12/10 14/17/10 15/18/10 11/13/10
f 11/14/11 15/19/11 16/20/11 12/15/11
f 12/15/12 16/20/12 13/16/12 9/11/12
f 13/16/13 17/21/13 18/22/13 14/17/13
f 14/17/14 18/22/14 19/23/14 15/18/14
f 15/19/15 19/24/15 20/25/15 16/20/15
f 16/20/16 20/25/16 17/21/16 13/16/16
f 17/21/17 21/26/17 22/27/17 18/22/17
f 18/22/18 22/27/18 23/28/18 19/23/18
f 19/24/19 23/29/19 24/30/19 20/25/19
f 20/25/20 24/30/20 21/26/20 17/21/20
f 21/26/21 25/31/21 26/32/21 22/27/21
f 22/27/22 26/32/22 27/33/22 23/28/22
f 23/29/23 27/34/23 28/35/23 24/30/23
f 24/30/24 28/35/24 25/31/24 21/26/24
f 25/31/25 29/36/25 30/37/25 26/32/25
f 26/32/26 30/37/26 31/38/26 27/33/26
f 27/34/27 31/39/27 32/40/27 28/35/27
f 28/35/28 32/40/28 29/36/28 25/31/28
f 29/36/29 33/41/29 34/42/29 30/37/29
f 30/37/30 34/42/30 35/43/30 31/38/30
f 31/39/31 35/44/31 36/45/31 32/40/31
f 32/40/32 36/45/32 33/41/32 29/36/32
f 33/41/33 37/46/33 38/47/33 34/42/33
f 34/42/34 38/47/34 39/48/34 35/43/34
f 35/44/35 39/49/35 40/50/35 36/45/35
f 36/45/36 40/50/36 37/46/36 33/41/36
f 37/46/37 41/51/37 42/52/37 38/47/37
f 38/47/38 42/52/38 43/53/38 39/48/38
f 39/49/39 43/54/39 44/55/39 40/50/39
f 40/50/40 44/55/40 41/51/40 37/46/40
f 41/51/41 45/56/41 46/57/41 42/52/41
f 42/52/42 46/57/42 47/58/42 43/53/42
f 43/54/43 47/59/43 48/60/43 44/55/43
f 44/55/44 48/60/44 45/56/44 41/51/44
f 45/56/45 49/61/45 50/62/45 46/57/45
f 46/57/46 50/62/46 51/63/46 47/58/46
f 47/59/47 51/64/47 52/65/47 48/60/47
f 48/60/48 52/65/48 49/61/48 45/56/48
f 49/61/49 53/66/49 54/67/49 50/62/49
f 50/62/50 54/67/50 55/68/50 51/63/50
f 51/64/51 55/69/51 56/70/51 52/65/51
f 52/65/52 56/70/52 53/66/52 49/61/52
f 53/66/53 57/71/53 58/72/53 54/67/53
f 54/67/54 58/72/54 59/73/54 55/68/54
f 55/69/55 59/74/55 60/75/55 56/70/55
f 56/70/56 60/75/56 57/71/56 53/66/56
f 57/71/57 61/76/57 62/77/57 58/72/57
f 58/72/58 62/77/58 63/78/58 59/73/58
f 59/74/59 63/79/59 64/80/59 60/75/59
f 60/75/60 64/80/60 61/76/60 57/71/60
f 61/76/61 65/81/61 66/82/61 62/77/61
f 62/77/62 66/82/62 67/83/62 63/78/62
f 63/79/63 67/84/63 68/85/63 64/80/63
f 64/80/64 68/85/64 65/81/64 61/76/64
f 65/81/65 69/86/65 70/87/65 66/82/65
f 66/82/66 70/87/66 71/88/66 67/83/66
f 67/84/67 71/89/67 72/90/67 68/85/67
f 68/85/68 72/90/68 69/86/68 65/81/68
f 69/86/69 73/91/69 74/92/69 70/87/69
f 70/87/70 74/92/70 75/93/70 71/88/70
f 71/89/71 75/94/71 76/95/71 72/90/71
f 72/90/72 76/95/72 73/91/72 69/86/72
f 73/96/2 77/97/2 78/98/2 74/99/2
f 74/99/1 78/98/1 79/100/1 75/101/1
f 75/102/4 79/103/4 80/104/4 76/105/4
f 76/105/3 80/104/3 77/97/3 73/96/3
f 77/97/6 81/106/6 82/107/6 78/98/6
f 78/98/5 82/107/5 83/108/5 79/100/5
f 79/103/8 83/109/8 84/110/8 80/104/8
f 80/104/7 84/110/7 81/106/7 77/97/7
f 81/106/10 85/111/10 86/112/10 82/107/10
f 82/107/9 86/112/9 87/113/9 83/108/9
f 83/109/12 87/114/12 88/115/12 84/110/12
f 84/110/11 88/115/11 85/111/11 81/106/11
f 85/111/14 89/116/14 90/117/14 86/112/14
f 86/112/73 90/117/73 91/118/73 87/113/73
f 87/114/74 91/119/74 92/120/74 88/115/74
f 88/115/15 92/120/15 89/116/15 85/111/15
f 89/116/18 93/121/18 94/122/18 90/117/18
f 90/117/17 94/122/17 95/123/17 91/118/17
f 91/119/20 95/124/20 96/125/20 92/120/20
f 92/120/19 96/125/19 93/121/19 89/116/19
f 93/121/22 97/126/22 98/127/22 94/122/22
f 94/122/75 98/127/75 99/128/75 95/123/75
f 95/124/24 99/129/24 100/130/24 96/125/24
f 96/125/23 100/130/23 97/126/23 93/121/23
f 97/126/26 101/131/26 102/132/26 98/127/26
f 98/127/25 102/132/25 103/133/25 99/128/25
f 99/129/28 103/134/28 104/135/28 100/130/28
f 100/130/27 104/135/27 101/131/27 97/126/27
f 101/131/30 105/136/30 106/137/30 102/132/30
f 102/132/29 106/137/29 107/138/29 103/133/29
f 103/134/32 107/139/32 108/140/32 104/135/32
f 104/135/31 108/140/31 105/136/31 101/131/31
f 105/136/34 109/141/34 110/142/34 106/137/34
f 106/137/33 110/142/33 111/143/33 107/138/33
f 107/139/36 111/144/36 112/145/36 108/140/36
f 108/140/35 112/145/35 109/141/35 105/136/35
f 109/141/38 113/146/38 114/147/38 110/142/38
f 110/142/37 114/147/37 115/148/37 111/143/37
f 111/144/40 115/149/40 116/150/40 112/145/40
f 112/145/39 116/150/39 113/146/39 109/141/39
f 113/146/42 117/151/42 118/152/42 114/147/42
f 114/147/41 118/152/41 119/153/41 115/148/41
f 115/149/44 119/154/44 120/155/44 116/150/44
f 116/150/43 120/155/43 117/151/43 113/146/43
f 117/151/46 121/156/46 122/157/46 118/152/46
f 118/152/45 122/157/45 123/158/45 119/153/45
f 119/154/48 123/159/48 124/160/48 120/155/48
f 120/155/47 124/160/47 121/156/47 117/151/47
f 121/156/50 125/161/50 126/162/50 122/157/50
f 122/157/49 126/162/49 127/163/49 123/158/49
f 123/159/52 127/164/52 128/165/52 124/160/52
f 124/160/76 128/165/76 125/161/76 121/156/76
f 125/161/54 129/166/54 130/167/54 126/162/54
f 126/162/53 130/167/53 131/168/53 127/163/53
f 127/164/56 131/169/56 132/170/56 128/165/56
f 128/165/55 132/170/55 129/166/55 125/161/55
f 129/166/77 133/171/77 134/172/77 130/167/77
f 130/167/57 134/172/57 135/173/57 131/168/57
f 131/169/60 135/174/60 136/175/60 132/170/60
f 132/170/78 136/175/78 133/171/78 129/166/78
f 133/171/62 137/176/62 138/177/62 134/172/62
f 134/172/61 138/177/61 139/178/61 135/173/61
f 135/174/64 139/179/64 140/180/64 136/175/64
f 136/175/63 140/180/63 137/176/63 133/171/63
f 137/176/66 141/181/66 142/182/66 138/177/66
f 138/177/65 142/182/65 143/183/65 139/178/65
f 139/179/68 143/184/68 144/185/68 140/180/68
f 140/180/67 144/185/67 141/181/67 137/176/67
f 141/181/70 1/1/70 4/4/70 142/182/70
f 142/182/69 4/4/69 6/6/69 143/183/69
f 143/184/72 6/7/72 8/10/72 144/185/72
f 144/185/71 8/10/71 1/1/71 141/181/71
