# Blender 3.6.8
# www.blender.org
mtllib round_brick.mtl
o round_brick
v -0.366200 0.500000 -0.000250
v -0.500150 0.500000 -0.500250
v -0.466100 0.500000 -0.241450
v -0.207300 0.500000 0.206850
v -0.500150 0.500000 -0.500250
v -0.366200 0.500000 -0.000250
v -0.000150 0.500000 0.365750
v -0.500150 0.500000 -0.500250
v -0.207300 0.500000 0.206850
v 0.241000 0.500000 0.465650
v -0.500150 0.500000 -0.500250
v -0.000150 0.500000 0.365750
v 0.499850 0.500000 0.499750
v -0.500150 0.500000 -0.500250
v 0.241000 0.500000 0.465650
v 0.499850 0.500000 -0.500250
v -0.500150 0.500000 -0.500250
v 0.499850 0.500000 0.499750
v 0.241000 -0.500000 0.465650
v -0.000150 -0.500000 0.365750
v 0.499850 -0.500000 0.499750
v -0.207300 -0.500000 0.206850
v 0.499850 -0.500000 0.499750
v -0.000150 -0.500000 0.365750
v -0.366200 -0.500000 -0.000250
v 0.499850 -0.500000 0.499750
v -0.207300 -0.500000 0.206850
v -0.466100 -0.500000 -0.241450
v 0.499850 -0.500000 0.499750
v -0.366200 -0.500000 -0.000250
v -0.500150 -0.500000 -0.500250
v 0.499850 -0.500000 0.499750
v -0.466100 -0.500000 -0.241450
v 0.499850 -0.500000 -0.500250
v 0.499850 -0.500000 0.499750
v -0.500150 -0.500000 -0.500250
v 0.241000 0.500000 0.465650
v 0.241000 -0.500000 0.465650
v 0.499850 0.500000 0.499750
v 0.499850 -0.500000 0.499750
v 0.499850 0.500000 0.499750
v 0.241000 -0.500000 0.465650
v 0.241000 0.500000 0.465650
v -0.000150 0.500000 0.365750
v 0.241000 -0.500000 0.465650
v -0.000150 -0.500000 0.365750
v 0.241000 -0.500000 0.465650
v -0.000150 0.500000 0.365750
v -0.466100 0.500000 -0.241450
v -0.500150 0.500000 -0.500250
v -0.466100 -0.500000 -0.241450
v -0.500150 -0.500000 -0.500250
v -0.466100 -0.500000 -0.241450
v -0.500150 0.500000 -0.500250
v -0.366200 0.500000 -0.000250
v -0.466100 0.500000 -0.241450
v -0.366200 -0.500000 -0.000250
v -0.466100 -0.500000 -0.241450
v -0.366200 -0.500000 -0.000250
v -0.466100 0.500000 -0.241450
v -0.207300 0.500000 0.206850
v -0.366200 0.500000 -0.000250
v -0.207300 -0.500000 0.206850
v -0.366200 -0.500000 -0.000250
v -0.207300 -0.500000 0.206850
v -0.366200 0.500000 -0.000250
v -0.000150 0.500000 0.365750
v -0.207300 0.500000 0.206850
v -0.000150 -0.500000 0.365750
v -0.207300 -0.500000 0.206850
v -0.000150 -0.500000 0.365750
v -0.207300 0.500000 0.206850
vn -0.0000 1.0000 -0.0000
vn -0.0000 -1.0000 -0.0000
vn -0.1306 -0.0000 0.9914
vn -0.3827 -0.0000 0.9239
vn -0.9915 -0.0000 0.1304
vn -0.9239 -0.0000 0.3827
vn -0.7934 -0.0000 0.6087
vn -0.6086 -0.0000 0.7934
vn 1.0000 -0.0000 -0.0000
vn -0.0000 -0.0000 -1.0000
vt 0.000000 0.000000
s 0
usemtl round_brick_Material
f 1/1/1 2/1/1 3/1/1
f 4/1/1 5/1/1 6/1/1
f 7/1/1 8/1/1 9/1/1
f 10/1/1 11/1/1 12/1/1
f 13/1/1 14/1/1 15/1/1
f 16/1/1 17/1/1 18/1/1
f 19/1/2 20/1/2 21/1/2
f 22/1/2 23/1/2 24/1/2
f 25/1/2 26/1/2 27/1/2
f 28/1/2 29/1/2 30/1/2
f 31/1/2 32/1/2 33/1/2
f 34/1/2 35/1/2 36/1/2
f 37/1/3 38/1/3 39/1/3
f 40/1/3 41/1/3 42/1/3
f 43/1/4 44/1/4 45/1/4
f 46/1/4 47/1/4 48/1/4
f 49/1/5 50/1/5 51/1/5
f 52/1/5 53/1/5 54/1/5
f 55/1/6 56/1/6 57/1/6
f 58/1/6 59/1/6 60/1/6
f 61/1/7 62/1/7 63/1/7
f 64/1/7 65/1/7 66/1/7
f 67/1/8 68/1/8 69/1/8
f 70/1/8 71/1/8 72/1/8
f 34/1/9 16/1/9 41/1/9 40/1/9
f 54/1/10 16/1/10 34/1/10 52/1/10
