# Blender 3.6.8
# www.blender.org
mtllib slope.mtl
o Cube
v -0.500000 -0.500000 0.500000
v -0.500000 -0.500000 -0.500000
v 0.500000 -0.500000 0.500000
v 0.500000 0.500000 0.500000
v 0.500000 -0.500000 -0.500000
v 0.500000 0.500000 -0.500000
vn -0.0000 -0.0000 -1.0000
vn -0.7071 0.7071 -0.0000
vn 1.0000 -0.0000 -0.0000
vn -0.0000 -1.0000 -0.0000
vn -0.0000 -0.0000 1.0000
vt 0.375000 0.500000
vt 0.125000 0.500000
vt 0.625000 0.500000
vt 0.125000 0.750000
vt 0.625000 0.750000
vt 0.375000 0.750000
s 0
f 5/1/1 2/2/1 6/3/1
f 1/4/2 4/5/2 6/3/2 2/2/2
f 5/1/3 6/3/3 4/5/3 3/6/3
f 2/2/4 5/1/4 3/6/4 1/4/4
f 4/5/5 1/4/5 3/6/5
