# Blender 3.6.8
# www.blender.org
mtllib sphere.mtl
o Sphere
v 0.000000 -0.154509 -0.475529
v 0.000000 -0.475529 -0.154508
v 0.077254 0.475529 -0.133809
v 0.146947 0.404508 -0.254519
v 0.202255 0.293892 -0.350315
v 0.237764 0.154508 -0.411819
v 0.250000 -0.000000 -0.433012
v 0.237764 -0.154509 -0.411819
v 0.202255 -0.293893 -0.350314
v 0.146947 -0.404509 -0.254518
v 0.077254 -0.475529 -0.133808
v 0.133808 0.475529 -0.077254
v 0.254519 0.404509 -0.146947
v 0.350314 0.293892 -0.202254
v 0.411819 0.154508 -0.237764
v 0.433012 -0.000000 -0.250000
v 0.411819 -0.154509 -0.237764
v 0.350314 -0.293893 -0.202254
v 0.254519 -0.404509 -0.146946
v 0.133808 -0.475529 -0.077254
v 0.154509 0.475529 -0.000000
v 0.293893 0.404509 -0.000000
v 0.404509 0.293893 -0.000000
v 0.475528 0.154509 -0.000000
v 0.500000 0.000000 0.000000
v 0.475528 -0.154509 0.000000
v 0.404509 -0.293893 0.000000
v 0.293893 -0.404509 0.000000
v 0.154509 -0.475529 0.000000
v 0.133808 0.475529 0.077254
v 0.254519 0.404509 0.146946
v 0.350314 0.293893 0.202254
v 0.411819 0.154509 0.237764
v 0.433012 0.000000 0.250000
v 0.411819 -0.154508 0.237764
v 0.350314 -0.293892 0.202254
v 0.254519 -0.404509 0.146947
v 0.133808 -0.475529 0.077255
v 0.077254 0.475529 0.133808
v 0.146947 0.404509 0.254518
v 0.202254 0.293893 0.350314
v 0.237764 0.154509 0.411819
v 0.250000 0.000000 0.433012
v 0.237764 -0.154508 0.411819
v 0.202254 -0.293892 0.350315
v 0.146947 -0.404508 0.254519
v 0.077254 -0.475529 0.133809
v 0.000000 0.475529 0.154508
v 0.000000 0.404509 0.293892
v 0.000000 0.293893 0.404508
v 0.000000 0.154509 0.475528
v 0.000000 0.000000 0.500000
v 0.000000 -0.154508 0.475528
v 0.000000 -0.293892 0.404509
v 0.000000 -0.404508 0.293893
v 0.000000 -0.475529 0.154509
v 0.000000 -0.500000 0.000000
v -0.077254 0.475529 0.133808
v -0.146947 0.404509 0.254518
v -0.202254 0.293893 0.350314
v -0.237764 0.154509 0.411819
v -0.250000 0.000000 0.433012
v -0.237764 -0.154508 0.411819
v -0.202254 -0.293892 0.350315
v -0.146947 -0.404508 0.254519
v -0.077254 -0.475529 0.133809
v -0.133808 0.475529 0.077254
v -0.254519 0.404509 0.146946
v -0.350314 0.293893 0.202254
v -0.411819 0.154509 0.237764
v -0.433012 0.000000 0.250000
v -0.411819 -0.154508 0.237764
v -0.350314 -0.293892 0.202254
v -0.254519 -0.404509 0.146947
v -0.133808 -0.475529 0.077254
v 0.000000 0.500000 -0.000000
v -0.154509 0.475529 -0.000000
v -0.293893 0.404509 -0.000000
v -0.404509 0.293893 -0.000000
v -0.475528 0.154509 -0.000000
v -0.500000 0.000000 0.000000
v -0.475528 -0.154509 0.000000
v -0.404509 -0.293893 0.000000
v -0.293893 -0.404509 0.000000
v -0.154509 -0.475529 0.000000
v -0.133808 0.475529 -0.077255
v -0.254519 0.404509 -0.146947
v -0.350314 0.293892 -0.202254
v -0.411819 0.154508 -0.237764
v -0.433012 -0.000000 -0.250000
v -0.411819 -0.154509 -0.237764
v -0.350314 -0.293893 -0.202254
v -0.254519 -0.404509 -0.146946
v -0.133808 -0.475529 -0.077254
v -0.077254 0.475529 -0.133809
v -0.146947 0.404508 -0.254519
v -0.202254 0.293892 -0.350315
v -0.237764 0.154508 -0.411819
v -0.250000 -0.000000 -0.433012
v -0.237764 -0.154509 -0.411819
v -0.202254 -0.293893 -0.350314
v -0.146947 -0.404509 -0.254518
v -0.077254 -0.475529 -0.133808
v 0.000000 0.475529 -0.154509
v 0.000000 0.404508 -0.293893
v 0.000000 0.293892 -0.404509
v 0.000000 0.154508 -0.475528
v 0.000000 -0.000000 -0.500000
v 0.000000 -0.293893 -0.404508
v 0.000000 -0.404509 -0.293892
vn -0.0000 -0.7968 -0.6043
vn -0.0000 -0.5758 -0.8176
vn 0.4088 -0.5758 -0.7081
vn 0.3021 -0.7968 -0.5233
vn -0.0000 -0.0000 -1.0000
vn -0.0000 0.3017 -0.9534
vn 0.4767 0.3017 -0.8257
vn 0.5000 -0.0000 -0.8660
vn -0.0000 0.7968 -0.6043
vn -0.0000 0.9432 -0.3322
vn 0.1661 0.9432 -0.2877
vn 0.3021 0.7968 -0.5233
vn -0.0000 -0.9432 -0.3322
vn 0.1661 -0.9432 -0.2877
vn -0.0000 -0.3017 -0.9534
vn 0.4767 -0.3017 -0.8257
vn -0.0000 0.5758 -0.8176
vn 0.4088 0.5758 -0.7081
vn -0.0000 -1.0000 -0.0000
vn -0.0000 1.0000 -0.0000
vn 0.8257 0.3017 -0.4767
vn 0.8660 -0.0000 -0.5000
vn 0.2877 0.9432 -0.1661
vn 0.5233 0.7968 -0.3021
vn 0.5233 -0.7968 -0.3021
vn 0.2877 -0.9432 -0.1661
vn 0.8257 -0.3017 -0.4767
vn 0.7081 0.5758 -0.4088
vn 0.7081 -0.5758 -0.4088
vn 0.3322 0.9432 -0.0000
vn 0.8176 -0.5758 -0.0000
vn 0.6043 -0.7968 -0.0000
vn 0.9534 0.3017 -0.0000
vn 1.0000 -0.0000 -0.0000
vn 0.6043 0.7968 -0.0000
vn 0.3322 -0.9432 -0.0000
vn 0.9534 -0.3017 -0.0000
vn 0.8176 0.5758 -0.0000
vn 0.8257 -0.3017 0.4767
vn 0.7081 -0.5758 0.4088
vn 0.7081 0.5758 0.4088
vn 0.8257 0.3017 0.4767
vn 0.2877 0.9432 0.1661
vn 0.5233 -0.7968 0.3021
vn 0.8660 -0.0000 0.5000
vn 0.5233 0.7968 0.3021
vn 0.2877 -0.9432 0.1661
vn 0.3021 0.7968 0.5233
vn 0.4088 0.5758 0.7081
vn 0.1661 -0.9432 0.2877
vn 0.4767 -0.3017 0.8257
vn 0.4088 -0.5758 0.7081
vn 0.4767 0.3017 0.8257
vn 0.1661 0.9432 0.2877
vn 0.3021 -0.7968 0.5233
vn 0.5000 -0.0000 0.8660
vn -0.0000 -0.0000 1.0000
vn -0.0000 -0.3017 0.9534
vn -0.0000 0.7968 0.6043
vn -0.0000 0.5758 0.8176
vn -0.0000 -0.9432 0.3322
vn -0.0000 -0.5758 0.8176
vn -0.0000 0.3017 0.9534
vn -0.0000 0.9432 0.3322
vn -0.0000 -0.7968 0.6043
vn -0.1661 0.9432 0.2877
vn -0.3021 0.7968 0.5233
vn -0.3021 -0.7968 0.5233
vn -0.1661 -0.9432 0.2877
vn -0.5000 -0.0000 0.8660
vn -0.4767 -0.3017 0.8257
vn -0.4088 0.5758 0.7081
vn -0.4088 -0.5758 0.7081
vn -0.4767 0.3017 0.8257
vn -0.7081 -0.5758 0.4088
vn -0.5233 -0.7968 0.3021
vn -0.8257 0.3017 0.4767
vn -0.8660 -0.0000 0.5000
vn -0.2877 0.9432 0.1661
vn -0.5233 0.7968 0.3021
vn -0.2877 -0.9432 0.1661
vn -0.8257 -0.3017 0.4767
vn -0.7081 0.5758 0.4088
vn -0.8176 0.5758 -0.0000
vn -0.9534 0.3017 -0.0000
vn -0.3322 0.9432 -0.0000
vn -0.8176 -0.5758 -0.0000
vn -0.6043 -0.7968 -0.0000
vn -1.0000 -0.0000 -0.0000
vn -0.6043 0.7968 -0.0000
vn -0.3322 -0.9432 -0.0000
vn -0.9534 -0.3017 -0.0000
vn -0.8257 -0.3017 -0.4767
vn -0.7081 -0.5758 -0.4088
vn -0.7081 0.5758 -0.4088
vn -0.8257 0.3017 -0.4767
vn -0.2877 0.9432 -0.1661
vn -0.5233 -0.7968 -0.3021
vn -0.8660 -0.0000 -0.5000
vn -0.5233 0.7968 -0.3021
vn -0.2877 -0.9432 -0.1661
vn -0.3021 0.7968 -0.5233
vn -0.4088 0.5758 -0.7081
vn -0.1661 -0.9432 -0.2877
vn -0.4767 -0.3017 -0.8257
vn -0.4088 -0.5758 -0.7081
vn -0.4767 0.3017 -0.8257
vn -0.1661 0.9432 -0.2877
vn -0.3021 -0.7968 -0.5233
vn -0.5000 -0.0000 -0.8660
vt 0.750000 0.200000
vt 0.750000 0.300000
vt 0.666667 0.300000
vt 0.666667 0.200000
vt 0.750000 0.500000
vt 0.750000 0.600000
vt 0.666667 0.600000
vt 0.666667 0.500000
vt 0.750000 0.800000
vt 0.750000 0.900000
vt 0.666667 0.900000
vt 0.666667 0.800000
vt 0.750000 0.100000
vt 0.666667 0.100000
vt 0.750000 0.400000
vt 0.666667 0.400000
vt 0.750000 0.700000
vt 0.666667 0.700000
vt 0.708333 0.000000
vt 0.708333 1.000000
vt 0.583333 0.600000
vt 0.583333 0.500000
vt 0.583333 0.900000
vt 0.583333 0.800000
vt 0.583333 0.200000
vt 0.583333 0.100000
vt 0.583333 0.400000
vt 0.583333 0.700000
vt 0.625000 0.000000
vt 0.583333 0.300000
vt 0.625000 1.000000
vt 0.541667 1.000000
vt 0.500000 0.900000
vt 0.500000 0.300000
vt 0.500000 0.200000
vt 0.500000 0.600000
vt 0.500000 0.500000
vt 0.500000 0.800000
vt 0.500000 0.100000
vt 0.500000 0.400000
vt 0.500000 0.700000
vt 0.541667 0.000000
vt 0.416667 0.400000
vt 0.416667 0.300000
vt 0.416667 0.700000
vt 0.416667 0.600000
vt 0.458333 1.000000
vt 0.416667 0.900000
vt 0.416667 0.200000
vt 0.416667 0.500000
vt 0.416667 0.800000
vt 0.416667 0.100000
vt 0.458333 0.000000
vt 0.333333 0.800000
vt 0.333333 0.700000
vt 0.375000 0.000000
vt 0.333333 0.100000
vt 0.333333 0.400000
vt 0.333333 0.300000
vt 0.333333 0.600000
vt 0.375000 1.000000
vt 0.333333 0.900000
vt 0.333333 0.200000
vt 0.333333 0.500000
vt 0.250000 0.500000
vt 0.250000 0.400000
vt 0.250000 0.800000
vt 0.250000 0.700000
vt 0.291667 0.000000
vt 0.250000 0.100000
vt 0.250000 0.300000
vt 0.250000 0.600000
vt 0.291667 1.000000
vt 0.250000 0.900000
vt 0.250000 0.200000
vt 0.166667 0.900000
vt 0.166667 0.800000
vt 0.166667 0.200000
vt 0.166667 0.100000
vt 0.166667 0.500000
vt 0.166667 0.400000
vt 0.166667 0.700000
vt 0.208333 0.000000
vt 0.166667 0.300000
vt 0.166667 0.600000
vt 0.208333 1.000000
vt 0.083333 0.300000
vt 0.083333 0.200000
vt 0.083333 0.600000
vt 0.083333 0.500000
vt 0.083333 0.900000
vt 0.083333 0.800000
vt 0.083333 0.100000
vt 0.083333 0.400000
vt 0.083333 0.700000
vt 0.125000 0.000000
vt 0.125000 1.000000
vt 0.000000 0.700000
vt 0.000000 0.600000
vt 0.041667 1.000000
vt 0.000000 0.900000
vt 0.000000 0.300000
vt 0.000000 0.200000
vt 0.000000 0.500000
vt 0.000000 0.800000
vt 0.000000 0.100000
vt 0.000000 0.400000
vt 0.041667 0.000000
vt 1.000000 0.300000
vt 1.000000 0.400000
vt 0.916667 0.400000
vt 0.916667 0.300000
vt 1.000000 0.600000
vt 1.000000 0.700000
vt 0.916667 0.700000
vt 0.916667 0.600000
vt 1.000000 0.900000
vt 0.958333 1.000000
vt 0.916667 0.900000
vt 1.000000 0.200000
vt 0.916667 0.200000
vt 1.000000 0.500000
vt 0.916667 0.500000
vt 1.000000 0.800000
vt 0.916667 0.800000
vt 1.000000 0.100000
vt 0.916667 0.100000
vt 0.958333 0.000000
vt 0.833333 0.800000
vt 0.833333 0.700000
vt 0.875000 0.000000
vt 0.833333 0.100000
vt 0.833333 0.400000
vt 0.833333 0.300000
vt 0.833333 0.600000
vt 0.875000 1.000000
vt 0.833333 0.900000
vt 0.833333 0.200000
vt 0.833333 0.500000
vt 0.791667 0.000000
vt 0.791667 1.000000
s 1
usemtl None
f 110/1/1 109/2/2 9/3/3 10/4/4
f 108/5/5 107/6/6 6/7/7 7/8/8
f 105/9/9 104/10/10 3/11/11 4/12/12
f 2/13/13 110/1/1 10/4/4 11/14/14
f 1/15/15 108/5/5 7/8/8 8/16/16
f 106/17/17 105/9/9 4/12/12 5/18/18
f 57/19/19 2/13/13 11/14/14
f 109/2/2 1/15/15 8/16/16 9/3/3
f 107/6/6 106/17/17 5/18/18 6/7/7
f 104/10/10 76/20/20 3/11/11
f 7/8/8 6/7/7 15/21/21 16/22/22
f 4/12/12 3/11/11 12/23/23 13/24/24
f 11/14/14 10/4/4 19/25/25 20/26/26
f 8/16/16 7/8/8 16/22/22 17/27/27
f 5/18/18 4/12/12 13/24/24 14/28/28
f 57/29/19 11/14/14 20/26/26
f 9/3/3 8/16/16 17/27/27 18/30/29
f 6/7/7 5/18/18 14/28/28 15/21/21
f 3/11/11 76/31/20 12/23/23
f 10/4/4 9/3/3 18/30/29 19/25/25
f 12/23/23 76/32/20 21/33/30
f 19/25/25 18/30/29 27/34/31 28/35/32
f 16/22/22 15/21/21 24/36/33 25/37/34
f 13/24/24 12/23/23 21/33/30 22/38/35
f 20/26/26 19/25/25 28/35/32 29/39/36
f 17/27/27 16/22/22 25/37/34 26/40/37
f 14/28/28 13/24/24 22/38/35 23/41/38
f 57/42/19 20/26/26 29/39/36
f 18/30/29 17/27/27 26/40/37 27/34/31
f 15/21/21 14/28/28 23/41/38 24/36/33
f 27/34/31 26/40/37 35/43/39 36/44/40
f 24/36/33 23/41/38 32/45/41 33/46/42
f 21/33/30 76/47/20 30/48/43
f 28/35/32 27/34/31 36/44/40 37/49/44
f 25/37/34 24/36/33 33/46/42 34/50/45
f 22/38/35 21/33/30 30/48/43 31/51/46
f 29/39/36 28/35/32 37/49/44 38/52/47
f 26/40/37 25/37/34 34/50/45 35/43/39
f 23/41/38 22/38/35 31/51/46 32/45/41
f 57/53/19 29/39/36 38/52/47
f 32/45/41 31/51/46 40/54/48 41/55/49
f 57/56/19 38/52/47 47/57/50
f 36/44/40 35/43/39 44/58/51 45/59/52
f 33/46/42 32/45/41 41/55/49 42/60/53
f 30/48/43 76/61/20 39/62/54
f 37/49/44 36/44/40 45/59/52 46/63/55
f 34/50/45 33/46/42 42/60/53 43/64/56
f 31/51/46 30/48/43 39/62/54 40/54/48
f 38/52/47 37/49/44 46/63/55 47/57/50
f 35/43/39 34/50/45 43/64/56 44/58/51
f 44/58/51 43/64/56 52/65/57 53/66/58
f 41/55/49 40/54/48 49/67/59 50/68/60
f 57/69/19 47/57/50 56/70/61
f 45/59/52 44/58/51 53/66/58 54/71/62
f 42/60/53 41/55/49 50/68/60 51/72/63
f 39/62/54 76/73/20 48/74/64
f 46/63/55 45/59/52 54/71/62 55/75/65
f 43/64/56 42/60/53 51/72/63 52/65/57
f 40/54/48 39/62/54 48/74/64 49/67/59
f 47/57/50 46/63/55 55/75/65 56/70/61
f 49/67/59 48/74/64 58/76/66 59/77/67
f 56/70/61 55/75/65 65/78/68 66/79/69
f 53/66/58 52/65/57 62/80/70 63/81/71
f 50/68/60 49/67/59 59/77/67 60/82/72
f 57/83/19 56/70/61 66/79/69
f 54/71/62 53/66/58 63/81/71 64/84/73
f 51/72/63 50/68/60 60/82/72 61/85/74
f 48/74/64 76/86/20 58/76/66
f 55/75/65 54/71/62 64/84/73 65/78/68
f 52/65/57 51/72/63 61/85/74 62/80/70
f 65/78/68 64/84/73 73/87/75 74/88/76
f 62/80/70 61/85/74 70/89/77 71/90/78
f 59/77/67 58/76/66 67/91/79 68/92/80
f 66/79/69 65/78/68 74/88/76 75/93/81
f 63/81/71 62/80/70 71/90/78 72/94/82
f 60/82/72 59/77/67 68/92/80 69/95/83
f 57/96/19 66/79/69 75/93/81
f 64/84/73 63/81/71 72/94/82 73/87/75
f 61/85/74 60/82/72 69/95/83 70/89/77
f 58/76/66 76/97/20 67/91/79
f 70/89/77 69/95/83 79/98/84 80/99/85
f 67/91/79 76/100/20 77/101/86
f 74/88/76 73/87/75 83/102/87 84/103/88
f 71/90/78 70/89/77 80/99/85 81/104/89
f 68/92/80 67/91/79 77/101/86 78/105/90
f 75/93/81 74/88/76 84/103/88 85/106/91
f 72/94/82 71/90/78 81/104/89 82/107/92
f 69/95/83 68/92/80 78/105/90 79/98/84
f 57/108/19 75/93/81 85/106/91
f 73/87/75 72/94/82 82/107/92 83/102/87
f 83/109/87 82/110/92 91/111/93 92/112/94
f 80/113/85 79/114/84 88/115/95 89/116/96
f 77/117/86 76/118/20 86/119/97
f 84/120/88 83/109/87 92/112/94 93/121/98
f 81/122/89 80/113/85 89/116/96 90/123/99
f 78/124/90 77/117/86 86/119/97 87/125/100
f 85/126/91 84/120/88 93/121/98 94/127/101
f 82/110/92 81/122/89 90/123/99 91/111/93
f 79/114/84 78/124/90 87/125/100 88/115/95
f 57/128/19 85/126/91 94/127/101
f 88/115/95 87/125/100 96/129/102 97/130/103
f 57/131/19 94/127/101 103/132/104
f 92/112/94 91/111/93 100/133/105 101/134/106
f 89/116/96 88/115/95 97/130/103 98/135/107
f 86/119/97 76/136/20 95/137/108
f 93/121/98 92/112/94 101/134/106 102/138/109
f 90/123/99 89/116/96 98/135/107 99/139/110
f 87/125/100 86/119/97 95/137/108 96/129/102
f 94/127/101 93/121/98 102/138/109 103/132/104
f 91/111/93 90/123/99 99/139/110 100/133/105
f 103/132/104 102/138/109 110/1/1 2/13/13
f 100/133/105 99/139/110 108/5/5 1/15/15
f 97/130/103 96/129/102 105/9/9 106/17/17
f 57/140/19 103/132/104 2/13/13
f 101/134/106 100/133/105 1/15/15 109/2/2
f 98/135/107 97/130/103 106/17/17 107/6/6
f 95/137/108 76/141/20 104/10/10
f 102/138/109 101/134/106 109/2/2 110/1/1
f 99/139/110 98/135/107 107/6/6 108/5/5
f 96/129/102 95/137/108 104/10/10 105/9/9
